name analog
datacolumns 19
datarows 52
range 0.6405 0.666
endheader
time	ground_force_vx	ground_force_vy	ground_force_vz	ground_force_px	ground_force_py	ground_force_pz	l_ground_force_vx	l_ground_force_vy	l_ground_force_vz	l_ground_force_px	l_ground_force_py	l_ground_force_pz	ground_torque_x	ground_torque_y	ground_torque_z	l_ground_torque_x	l_ground_torque_y	l_ground_torque_z
0.6405	-0.0	-0.0	-0.0	-0.0	-0.0	-0.0	-0.0	-0.0	-0.0	-0.0	-0.0	-0.0	-0.0	-0.0	-0.0	-0.0	-0.0	-0.0
0.641	-0.0	-0.0	-0.0	-0.0	-0.0	-0.0	-0.0	-0.0	-0.0	-0.0	-0.0	-0.0	-0.0	-0.0	-0.0	-0.0	-0.0	-0.0
0.6415	-0.0	-0.0	-0.0	-0.0	-0.0	-0.0	-0.0	-0.0	-0.0	-0.0	-0.0	-0.0	-0.0	-0.0	-0.0	-0.0	-0.0	-0.0
0.642	-0.0	-0.0	-0.0	-0.0	-0.0	-0.0	-0.0	-0.0	-0.0	-0.0	-0.0	-0.0	-0.0	-0.0	-0.0	-0.0	-0.0	-0.0
0.6425	-0.0	-0.0	-0.0	-0.0	-0.0	-0.0	-0.0	-0.0	-0.0	-0.0	-0.0	-0.0	-0.0	-0.0	-0.0	-0.0	-0.0	-0.0
0.643	-0.0	-0.0	-0.0	-0.0	-0.0	-0.0	-0.0	-0.0	-0.0	-0.0	-0.0	-0.0	-0.0	-0.0	-0.0	-0.0	-0.0	-0.0
0.6435	-0.0	-0.0	-0.0	-0.0	-0.0	-0.0	-0.0	-0.0	-0.0	-0.0	-0.0	-0.0	-0.0	-0.0	-0.0	-0.0	-0.0	-0.0
0.644	-0.0	-0.0	-0.0	-0.0	-0.0	-0.0	-0.0	-0.0	-0.0	-0.0	-0.0	-0.0	-0.0	-0.0	-0.0	-0.0	-0.0	-0.0
0.6445	-0.0	-0.0	-0.0	-0.0	-0.0	-0.0	-0.0	-0.0	-0.0	-0.0	-0.0	-0.0	-0.0	-0.0	-0.0	-0.0	-0.0	-0.0
0.645	-0.0	-0.0	-0.0	-0.0	-0.0	-0.0	-0.0	-0.0	-0.0	-0.0	-0.0	-0.0	-0.0	-0.0	-0.0	-0.0	-0.0	-0.0
0.6455	-0.0	-0.0	-0.0	-0.0	-0.0	-0.0	-0.0	-0.0	-0.0	-0.0	-0.0	-0.0	-0.0	-0.0	-0.0	-0.0	-0.0	-0.0
0.646	-0.0	-0.0	-0.0	-0.0	-0.0	-0.0	-0.0	-0.0	-0.0	-0.0	-0.0	-0.0	-0.0	-0.0	-0.0	-0.0	-0.0	-0.0
0.6465	-0.0	-0.0	-0.0	-0.0	-0.0	-0.0	-0.0	-0.0	-0.0	-0.0	-0.0	-0.0	-0.0	-0.0	-0.0	-0.0	-0.0	-0.0
0.647	-0.0	-0.0	-0.0	-0.0	-0.0	-0.0	-0.0	-0.0	-0.0	-0.0	-0.0	-0.0	-0.0	-0.0	-0.0	-0.0	-0.0	-0.0
0.6475	-0.0	-0.0	-0.0	-0.0	-0.0	-0.0	-0.0	-0.0	-0.0	-0.0	-0.0	-0.0	-0.0	-0.0	-0.0	-0.0	-0.0	-0.0
0.648	-0.0	-0.0	-0.0	-0.0	-0.0	-0.0	-0.0	-0.0	-0.0	-0.0	-0.0	-0.0	-0.0	-0.0	-0.0	-0.0	-0.0	-0.0
0.6485	-0.0	-0.0	-0.0	-0.0	-0.0	-0.0	-0.0	-0.0	-0.0	-0.0	-0.0	-0.0	-0.0	-0.0	-0.0	-0.0	-0.0	-0.0
0.649	-0.0	-0.0	-0.0	-0.0	-0.0	-0.0	-0.0	-0.0	-0.0	-0.0	-0.0	-0.0	-0.0	-0.0	-0.0	-0.0	-0.0	-0.0
0.6495	-0.0	-0.0	-0.0	-0.0	-0.0	-0.0	-0.0	-0.0	-0.0	-0.0	-0.0	-0.0	-0.0	-0.0	-0.0	-0.0	-0.0	-0.0
0.65	-0.0	-0.0	-0.0	-0.0	-0.0	-0.0	-0.0	-0.0	-0.0	-0.0	-0.0	-0.0	-0.0	-0.0	-0.0	-0.0	-0.0	-0.0
0.6505	-0.0	-0.0	-0.0	-0.0	-0.0	-0.0	-0.0	-0.0	-0.0	-0.0	-0.0	-0.0	-0.0	-0.0	-0.0	-0.0	-0.0	-0.0
0.651	-0.0	-0.0	-0.0	-0.0	-0.0	-0.0	-0.0	-0.0	-0.0	-0.0	-0.0	-0.0	-0.0	-0.0	-0.0	-0.0	-0.0	-0.0
0.6515	-0.0	-0.0	-0.0	-0.0	-0.0	-0.0	-0.0	-0.0	-0.0	-0.0	-0.0	-0.0	-0.0	-0.0	-0.0	-0.0	-0.0	-0.0
0.652	-0.0	-0.0	-0.0	-0.0	-0.0	-0.0	-0.0	-0.0	-0.0	-0.0	-0.0	-0.0	-0.0	-0.0	-0.0	-0.0	-0.0	-0.0
0.6525	-0.0	-0.0	-0.0	-0.0	-0.0	-0.0	-0.0	-0.0	-0.0	-0.0	-0.0	-0.0	-0.0	-0.0	-0.0	-0.0	-0.0	-0.0
0.653	-0.0	-0.0	-0.0	-0.0	-0.0	-0.0	-0.0	-0.0	-0.0	-0.0	-0.0	-0.0	-0.0	-0.0	-0.0	-0.0	-0.0	-0.0
0.6535	-0.0	-0.0	-0.0	-21.850982666015625	-20.73973846435547	-99.19219970703124	-61.10675048828125	3.754562377929688	-240.08714294433597	-0.0	-0.0	-0.0	-0.0	-0.0	-0.0	72751.1953125	-4713.77783203125	-20489.845703125
0.654	-0.0	-0.0	-0.0	-102.02581024169922	3.282674789428711	-333.204345703125	-223.636474609375	26.30889320373535	-577.73193359375	-0.0	-0.0	-0.0	-0.0	-0.0	-0.0	187115.4375	-36202.9375	-74364.84375
0.6545	-0.0	-0.0	-0.0	-295.3861389160156	22.63221740722656	-415.2076110839844	-276.6553649902344	-52.45597839355469	-454.0822448730469	-0.0	-0.0	-0.0	-0.0	-0.0	-0.0	138159.328125	-21184.44140625	-87966.4375
0.655	-0.0	-0.0	-0.0	-216.482666015625	105.91693115234376	-570.7645874023438	-138.17584228515625	-73.4909439086914	-561.544677734375	-0.0	-0.0	-0.0	-0.0	-0.0	-0.0	180156.0	-35460.03125	-45841.28515625
0.6555	-0.0	-0.0	-0.0	-79.57304382324219	67.83341979980469	-598.5166625976562	-12.656949996948242	-69.78084564208984	-720.1444091796875	-0.0	-0.0	-0.0	-0.0	-0.0	-0.0	209587.90625	-52457.68359375	-5235.28857421875
0.656	-0.0	-0.0	-0.0	11.332621574401855	71.50971221923828	-671.463623046875	66.52243041992188	-90.31804656982422	-780.34326171875	-0.0	-0.0	-0.0	-0.0	-0.0	-0.0	237979.171875	-65529.83203125	21319.986328125
0.6565	-0.0	-0.0	-0.0	33.61819076538086	84.53538513183594	-723.1688232421875	63.39129638671875	-105.52886199951172	-909.1604614257812	-0.0	-0.0	-0.0	-0.0	-0.0	-0.0	273335.25	-84613.21875	23866.212890625
0.657	-0.0	-0.0	-0.0	12.854896545410156	123.7653579711914	-932.63671875	78.89324188232422	-150.4493865966797	-1522.0343017578125	-0.0	-0.0	-0.0	-0.0	-0.0	-0.0	467012.28125	-225593.046875	38369.0390625
0.6575	-0.0	-0.0	-0.0	200.00286865234372	223.5533905029297	-2092.085205078125	596.0189819335938	-296.1070861816406	-3151.787353515625	-0.0	-0.0	-0.0	-0.0	-0.0	-0.0	984278.0625	-624561.375	244478.1875
0.658	-0.0	-0.0	-0.0	728.9608764648438	184.05593872070312	-2483.83740234375	906.2661743164062	-134.69664001464844	-2173.805908203125	-0.0	-0.0	-0.0	-0.0	-0.0	-0.0	675287.3125	-440461.90625	311898.09375
0.6585	-0.0	-0.0	-0.0	637.88623046875	82.4669189453125	-1652.7125244140625	412.2505798339844	-119.83250427246094	-1806.5352783203125	-0.0	-0.0	-0.0	-0.0	-0.0	-0.0	565738.625	-342245.5	144086.609375
0.659	-0.0	-0.0	-0.0	280.7470703125	133.41175842285156	-1515.1690673828125	117.66976928710938	-142.1172637939453	-1485.9639892578125	-0.0	-0.0	-0.0	-0.0	-0.0	-0.0	460097.8125	-247696.34375	49494.953125
0.6595	-0.0	-0.0	-0.0	70.21333312988281	154.9967041015625	-1305.103271484375	-79.37326049804688	-137.9990234375	-1188.9044189453125	-0.0	-0.0	-0.0	-0.0	-0.0	-0.0	366137.21875	-174499.703125	-13299.9130859375
0.66	-0.0	-0.0	-0.0	-71.3680648803711	141.3032989501953	-1111.32861328125	-215.4671936035156	-151.528564453125	-1047.35009765625	-0.0	-0.0	-0.0	-0.0	-0.0	-0.0	319572.4375	-131872.484375	-53403.1484375
0.6605	-0.0	-0.0	-0.0	-175.39715576171875	160.96578979492188	-1006.2722778320312	-245.3912048339844	-140.96142578125	-904.20703125	-0.0	-0.0	-0.0	-0.0	-0.0	-0.0	275672.5625	-99895.0234375	-65200.34765625
0.661	-0.0	-0.0	-0.0	-187.07443237304688	142.3550262451172	-917.0347900390624	-215.41558837890625	-116.84137725830078	-832.6820068359375	-0.0	-0.0	-0.0	-0.0	-0.0	-0.0	253359.203125	-84579.7265625	-59212.6015625
0.6615	-0.0	-0.0	-0.0	-143.61251831054688	117.5339813232422	-871.8683471679688	-179.6455078125	-123.26282501220705	-829.37158203125	-0.0	-0.0	-0.0	-0.0	-0.0	-0.0	251627.421875	-84274.3046875	-47671.375
0.662	-0.0	-0.0	-0.0	-107.17391204833984	113.12889099121094	-883.786376953125	-136.97608947753906	-131.9342498779297	-874.8832397460938	-0.0	-0.0	-0.0	-0.0	-0.0	-0.0	264982.84375	-95331.234375	-33301.203125
0.6625	-0.0	-0.0	-0.0	-76.55140686035156	111.35650634765624	-923.9386596679688	-88.21900939941406	-129.09014892578125	-950.2842407226562	-0.0	-0.0	-0.0	-0.0	-0.0	-0.0	289019.1875	-113174.484375	-18780.146484375
0.663	-0.0	-0.0	-0.0	-44.14471435546875	100.4066925048828	-960.5072021484376	-43.24110412597656	-124.56114959716795	-1009.970458984375	-0.0	-0.0	-0.0	-0.0	-0.0	-0.0	308180.96875	-127995.0	-6478.05029296875
0.6635	-0.0	-0.0	-0.0	-26.812294006347656	94.0963897705078	-966.3242797851562	-11.914665222167969	-120.90943908691406	-1004.837890625	-0.0	-0.0	-0.0	-0.0	-0.0	-0.0	306690.375	-128929.046875	2219.663330078125
0.664	-0.0	-0.0	-0.0	-27.891845703125	96.4525375366211	-937.6705322265624	-6.616134166717529	-118.05750274658205	-952.1649780273438	-0.0	-0.0	-0.0	-0.0	-0.0	-0.0	290056.96875	-118771.9609375	2972.846435546875
0.6645	-0.0	-0.0	-0.0	-33.158260345458984	92.32569122314452	-901.125	-19.15557861328125	-116.20763397216795	-896.5111694335938	-0.0	-0.0	-0.0	-0.0	-0.0	-0.0	272777.09375	-107641.171875	-1430.182861328125
0.665	-0.0	-0.0	-0.0	-37.87239456176758	84.6841812133789	-864.52685546875	-30.53477478027344	-112.81381225585938	-851.461669921875	-0.0	-0.0	-0.0	-0.0	-0.0	-0.0	259273.4375	-98618.078125	-5403.16015625
0.6655	-0.0	-0.0	-0.0	-43.73439407348633	81.33671569824219	-842.5463256835938	-37.81215286254883	-105.72760009765624	-813.85302734375	-0.0	-0.0	-0.0	-0.0	-0.0	-0.0	247439.0625	-91628.796875	-8436.037109375
0.666	-0.0	-0.0	-0.0	-46.65339660644531	77.89176940917969	-820.3963012695312	-43.02133941650391	-96.72911834716795	-782.935302734375	-0.0	-0.0	-0.0	-0.0	-0.0	-0.0	238499.078125	-86392.1015625	-11441.6240234375
